<svg width="610" height="484" viewBox="0 0 610 484" fill="none" xmlns="http://www.w3.org/2000/svg">
<path opacity="0.03" d="M89.6759 223.018C91.544 206.186 110.933 197.688 124.576 207.722L206.202 267.755C219.845 277.789 217.51 298.829 201.999 305.627L109.196 346.301C93.6848 353.099 76.6309 340.557 78.499 323.725L89.6759 223.018Z" fill="white"/>
<circle opacity="0.03" cx="270.5" cy="58.5" r="58.5" fill="white"/>
<rect opacity="0.03" x="337.718" y="358" width="100" height="100" rx="10" transform="rotate(17.8891 337.718 358)" fill="white"/>
<path opacity="0.03" d="M522.594 89.8867C528.331 84.9399 537.092 89.9978 535.677 97.4402L530.327 125.571C529.703 128.852 531.183 132.174 534.038 133.906L558.523 148.754C565.001 152.682 562.897 162.577 555.382 163.531L526.975 167.136C523.662 167.556 520.959 169.99 520.195 173.241L513.64 201.116C511.906 208.49 501.845 209.547 498.616 202.695L486.408 176.792C484.985 173.771 481.835 171.953 478.507 172.23L449.971 174.61C442.422 175.239 438.307 165.998 443.827 160.809L464.689 141.195C467.122 138.908 467.878 135.35 466.586 132.27L455.505 105.867C452.573 98.8811 460.091 92.1123 466.732 95.7581L491.833 109.538C494.76 111.146 498.377 110.765 500.906 108.585L522.594 89.8867Z" fill="white"/>
</svg>
