<svg width="236" height="243" viewBox="0 0 236 243" fill="none" xmlns="http://www.w3.org/2000/svg">
<g opacity="0.2">
<path d="M9.925 205.09L16.6022 169.462L43.1293 194.165L9.925 205.09Z" stroke="white" stroke-width="5"/>
<path d="M165 132.792L205.561 91.7306L224.496 146.253L165 132.792Z" stroke="white" stroke-width="5"/>
<path d="M57.5 19C38.7 19 33.3333 35.3333 33 43.5C33 51.6667 37.9 68 57.5 68C77.1 68 82 51.6667 82 43.5C81.6667 35.3333 76.3 19 57.5 19Z" stroke="white" stroke-width="5"/>
<path d="M163 212C152.257 212 149.19 221.333 149 226C149 230.667 151.8 240 163 240C174.2 240 177 230.667 177 226C176.81 221.333 173.743 212 163 212Z" stroke="white" stroke-width="5"/>
<path d="M155.83 45.2166L149 9.87044L184.556 3L191.386 38.3462L155.83 45.2166Z" stroke="white" stroke-width="5"/>
<path d="M82 146.117L89.9254 111L124.067 118.705L116.141 153.822L82 146.117Z" stroke="white" stroke-width="5"/>
</g>
</svg>
